<?xml version="1.0" encoding="UTF-8"?><svg id="a" xmlns="http://www.w3.org/2000/svg" viewBox="0 0 160 160"><defs><style>.b{fill:#72cbcc;}.b,.c,.d,.e,.f,.g,.h,.i,.j,.k,.l,.m,.n{stroke-width:0px;}.c{fill:#359496;}.d{fill:#317186;}.e{fill:#8dc1d2;}.f{fill:#7bb7ca;}.g{fill:#4fa9aa;}.h{fill:#94d5d5;}.i{fill:#b3d5e1;}.j{fill:#a0cbd9;}.k{fill:#388199;}.l{fill:#1e7678;}.m{fill:#f9fbfc;}.n{fill:#55a2bb;}</style></defs><polygon class="n" points="146.1 87.01 149.39 86.71 150.18 93.97 145.33 93.69 143.73 98.47 153.55 96.85 152.8 81.2 146.67 82.06 143.73 85.15 146.1 87.01"/><polygon class="g" points="133.56 77.62 119.93 82.72 134.21 89.88 136.64 83.75 133.56 77.62"/><polygon class="c" points="146.67 82.06 133.56 77.62 132.27 86.67 142.43 88.61 146.67 82.06"/><polygon class="d" points="141.26 84.06 132.93 82.06 126.23 84.58 134.28 91.35 141.26 84.06"/><polygon class="g" points="146.67 82.06 132.27 86.67 130.67 95.78 135.28 111.64 143.65 108.34 145.33 93.69 142.58 90.82 146.1 87.01 146.67 82.06"/><polygon class="l" points="132.27 86.67 119.93 82.72 120.71 88.61 123.37 91.93 121.35 93.46 123.39 107.63 135.28 111.64 132.27 86.67"/><polygon class="j" points="146.1 87.01 132.9 91.87 131.26 93.9 133.5 96.85 145.33 93.69 146.1 87.01"/><polygon class="f" points="132.9 91.87 120.71 88.61 121.29 93.47 133.5 96.85 132.9 91.87"/><polygon class="i" points="136.28 69.62 131.67 63.37 136.52 54.5 141.3 64.95 136.28 69.62"/><polygon class="j" points="141.3 64.95 131.67 63.37 136.28 72.28 141.3 64.95"/><polygon class="c" points="10.45 86.05 23.79 81.53 27.24 85.01 26.97 90.57 18.2 90.57 10.45 86.05"/><polygon class="g" points="23.79 81.53 37.4 84.32 27.88 90.57 24.44 88.41 23.79 81.53"/><polygon class="i" points="12.76 69.31 14.33 71.73 18.12 91.35 15.61 92.17 11.68 72.36 12.76 69.31"/><polygon class="g" points="10.45 66.14 13.1 65.35 14.33 71.73 11.68 72.36 10.45 66.14"/><polygon class="e" points="25.94 89.81 27.2 75.95 26.03 72.65 24.24 75.66 22.74 92.79 25.94 89.81"/><polygon class="g" points="24.8 69.31 27.77 69.73 27.2 75.95 24.24 75.66 24.8 69.31"/><polygon class="i" points="24.44 88.41 22.68 67.03 21.27 63.55 19.96 67.4 22.03 90.35 24.44 88.41"/><polygon class="g" points="19.38 61.04 22.18 60.88 22.68 67.03 19.96 67.4 19.38 61.04"/><polygon class="g" points="24.44 88.41 10.45 86.05 11.46 91.35 13.57 94.24 12.38 96.2 15.29 111.44 24.11 113.49 27.24 97.45 24.44 88.41"/><polygon class="l" points="24.44 88.41 37.4 84.32 36.8 90.57 34.5 92.39 36.33 95.41 35.03 108.86 24.11 113.49 24.44 88.41"/><polygon class="i" points="11.46 91.35 24.37 93.9 26.45 95.26 24.32 97.92 12.38 96.2 11.46 91.35"/><polygon class="f" points="24.37 93.9 36.8 90.57 36.33 95.41 24.32 97.92 24.37 93.9"/><polygon class="i" points="35.2 28.32 120.86 32.54 115.26 87.01 41.49 88.95 35.2 28.32"/><polygon class="c" points="38.57 57.55 41.58 61.45 48.47 61.27 51.34 59.75 105.51 57.39 108.8 59.71 117.04 59.5 117.38 54.36 104.86 52.36 45.03 55.09 38.57 57.55"/><polygon class="g" points="38.57 53.51 48.33 53.07 52.13 55.09 106.01 52.36 107.37 50.39 117.66 49.93 117.38 54.36 38.57 57.55 38.57 53.51"/><polygon class="c" points="48.33 53.07 46.39 57.24 50.91 58.6 104.18 57.21 110.24 54.65 107.37 50.39 102.76 50.6 94.78 53.22 61.42 54.41 53.59 52.83 48.33 53.07"/><polygon class="l" points="46.39 57.24 48.47 61.27 108.8 59.71 110.24 54.65 46.39 57.24"/><polygon class="e" points="43.62 104.61 112.73 98.82 119.93 112.77 109.59 115.21 50.12 117.07 38.86 114.9 43.62 104.61"/><polygon class="n" points="38.86 114.9 40.7 121.64 118.63 117.36 119.93 112.77 38.86 114.9"/><polygon class="e" points="46.39 84.22 111.39 83.19 118.23 85.51 116.12 90.46 37.35 92.39 37.35 87.01 46.39 84.22"/><polygon class="k" points="41.49 88.95 46.39 84.22 40.15 31.24 33.05 31.24 35.2 64.66 41.49 88.95"/><polygon class="k" points="115.26 87.01 111.39 83.19 115.26 32.54 120.86 32.54 120.86 64.66 115.26 87.01"/><polygon class="e" points="26.97 25.22 40.36 18.55 115.43 19.63 127.96 28.45 113.11 31.24 32.83 28.23 26.97 25.22"/><path class="n" d="M26.97,25.22l5.62,70.98,88.7-2.72,6.67-65.02-100.99-3.23ZM115.26,87.01l-73.77,1.94-6.29-56.42,83.03,3.06-2.96,51.42Z"/><polygon class="m" points="56.15 52.71 48.87 72.27 75.34 77.11 109.24 68.18 100.72 50.69 56.15 52.71"/><polygon class="h" points="51.25 74.83 54.89 91.75 57.31 95.77 74.15 99.5 100.46 99.43 102.69 94.64 106.32 72.11 106 68.4 51.23 72.11 51.25 74.83"/><polygon class="m" points="55.43 99.14 49.9 142.38 110.24 143.7 103.28 104.88 102.97 99.64 54.45 95.52 55.43 99.14"/><polygon class="g" points="56.58 62.55 59.66 61.9 61.6 64.42 64.68 57.89 68.42 57.74 62.25 66.57 56.58 62.55"/><polygon class="f" points="74.37 59.82 96.25 58.17 97.04 60.33 74.58 61.69 74.37 59.82"/><polygon class="c" points="58.66 79.27 61.46 79.41 62.89 82.64 67.05 76.83 70.57 77.11 63.03 85.01 58.66 79.27"/><polygon class="n" points="75.73 79.48 97.9 80.2 97.18 82.92 75.59 81.42 75.73 79.48"/><polygon class="g" points="61.55 107.21 64.65 106.65 66.61 109.91 71.22 103.95 74.99 104.59 66.54 112.22 61.55 107.21"/><polygon class="g" points="61.63 125.18 64.57 124.54 66.76 128.52 71.29 123.19 74.84 123.59 66.39 131.3 61.63 125.18"/><polygon class="f" points="78.14 108.08 96.49 109.99 97.02 112.22 78.29 110.23 78.14 108.08"/><polygon class="f" points="79.73 126.53 98.69 127.72 99.08 130.24 79.95 128.91 79.73 126.53"/><polygon class="k" points="72.91 41.21 84.64 41.32 84.21 43.9 73.66 43.69 72.91 41.21"/><polygon class="h" points="53.59 52.83 48.87 72.27 50.48 73.56 51.23 72.11 56.15 52.71 53.59 52.83"/><polygon class="h" points="102.76 50.6 109.24 68.18 107.73 69.62 106 68.4 100.72 50.69 102.76 50.6"/><polygon class="g" points="106 68.4 100.46 99.43 101.86 100.79 102.97 99.64 109.24 68.18 106 68.4"/><polygon class="g" points="51.23 72.11 57.31 95.77 55.43 97.92 54.45 95.52 48.87 72.27 51.23 72.11"/><polygon class="b" points="114.65 147.46 102.97 99.64 100.46 99.43 107.3 141.04 52.58 140.03 57.31 95.77 54.45 95.52 46.35 145.65 114.65 147.46"/></svg>