<?xml version="1.0" encoding="UTF-8"?><svg id="a" xmlns="http://www.w3.org/2000/svg" viewBox="0 0 160 160"><defs><style>.b{fill:#735283;}.b,.c,.d,.e,.f,.g,.h,.i,.j,.k,.l,.m{stroke-width:0px;}.c{fill:#9f80ae;}.d{fill:#9471a4;}.e{fill:#b3889d;}.f{fill:#c3b0cc;}.g{fill:#654873;}.h{fill:#d1a1b8;}.i{fill:#dbcfe0;}.j{fill:#96637c;}.k{fill:#b7a0c2;}.l{fill:#88619a;}.m{fill:#ab90b8;}</style></defs><polygon class="k" points="5.97 35.9 49.57 45.49 39.93 103.93 41.75 119.91 12.97 127.94 5.97 35.9"/><polygon class="c" points="32.68 113.69 41.75 119.91 49.57 90.94 32.68 113.69"/><polygon class="k" points="156.63 46.07 119.26 40.52 108.87 102.43 101.09 118.52 142.34 129.31 156.63 46.07"/><polygon class="d" points="101.09 118.52 97.6 89.33 115.58 106.45 101.09 118.52"/><polygon class="d" points="113.97 75.04 137.1 73.03 135.09 75.44 133.23 75.69 115.58 78.06 113.97 75.04"/><polygon class="d" points="113.36 87.52 127.25 94.16 124.23 95.56 111.75 89.73 113.36 87.52"/><polygon class="d" points="43.15 58.14 25.64 65.99 27.99 67.53 29.67 66.8 42.74 61.16 43.15 58.14"/><polygon class="d" points="24.31 71.85 39.06 86.11 36.1 87.31 23.83 75.11 24.31 71.85"/><polygon class="j" points="23.83 75.11 29.67 66.8 22.32 61.96 17.29 69.81 23.83 75.11"/><polygon class="j" points="133.23 75.69 138.01 80.05 143.74 75.11 137.1 68.54 133.23 75.69"/><polygon class="j" points="122.43 94.72 123.38 94.16 128.71 90.94 133.23 97.98 124.33 101.7 122.43 94.72"/><polygon class="i" points="136.4 75.34 138.01 73.23 139.92 74.54 137.91 76.55 136.4 75.34"/><polygon class="i" points="125.54 95.66 127.25 94.16 128.86 96.77 126.54 98.08 125.54 95.66"/><polygon class="i" points="21.52 68.81 23.03 66.19 24.94 68 23.23 71.02 21.52 68.81"/><polygon class="i" points="39.95 35.72 38.6 50.22 40.67 51.64 38.27 53.75 32.68 113.69 115.58 106.45 119.99 83.69 118.86 81.53 120.54 80.9 130.87 27.69 39.95 35.72"/><polygon class="m" points="120.54 80.9 115.32 80.05 108.23 81.18 94.15 73.03 92.24 74.89 103.7 81.49 107.53 83.69 112.51 82.34 119.99 83.69 120.54 80.9"/><polygon class="m" points="38.6 50.22 53.81 48.79 60.37 52.72 69.4 58.14 67.39 60.05 53.41 51.25 48.04 52.14 38.27 53.75 38.6 50.22"/><polygon class="j" points="48.04 52.14 55.22 46.57 60.37 52.72 53.21 58.9 48.04 52.14"/><polygon class="j" points="103.7 81.49 108.64 75.55 115.32 80.05 110.24 87.52 103.7 81.49"/><polygon class="i" points="107.63 81.48 109.14 79.12 111.2 80.63 109.49 83.39 107.63 81.48"/><polygon class="i" points="52.05 52.36 54.31 50.6 55.87 52.31 53.56 54.57 52.05 52.36"/><polygon class="h" points="52.94 125.81 41.13 135.06 45.56 154.65 61.2 142.71 59.43 128.76 52.94 125.81"/><polygon class="h" points="82.54 118.52 86.87 134.53 73.06 146.2 70.37 129.3 78.96 119.91 82.54 118.52"/><polygon class="h" points="43.15 100.65 27.74 110.27 31.44 131.04 45.56 119.91 44.96 103.93 43.15 100.65"/><polygon class="c" points="50.79 66.19 66.08 62.84 60.37 75.55 53.84 73.23 50.79 66.19"/><polygon class="l" points="56.67 71.85 50.79 66.19 48.93 70.69 50.79 75.11 46.91 75.58 36.98 99.65 44.96 103.93 53.84 93.22 56.67 71.85"/><polygon class="e" points="48.93 70.69 54.95 76.55 56.67 79.12 54.64 82.42 46.82 75.55 48.93 70.69"/><polygon class="c" points="101.09 92.65 95.19 81.25 85.94 90.94 91.43 96.12 101.09 92.65"/><polygon class="b" points="92.5 91.54 101.09 92.65 99.24 98.08 96.36 100.65 97.6 102.89 90.48 123.8 78.96 119.91 78.02 113.69 92.5 91.54"/><polygon class="j" points="99.24 98.08 88.98 96.32 88.15 100.65 97.6 102.89 99.24 98.08"/><polygon class="h" points="70.86 32.99 66.29 45.49 65.34 58.14 59.43 64.3 44.96 103.93 57.91 123.35 99.78 45.49 70.86 32.99"/><polygon class="e" points="57.91 123.35 78.96 119.91 96.35 83.49 97.6 74.84 104.6 66.19 113.97 46.57 99.78 45.49 85.6 52.58 57.91 123.35"/><polygon class="d" points="70.86 32.99 76.68 28.78 80.7 28.7 81.07 25.61 87.78 20.77 92.24 21.32 92.69 17.22 107.63 6.43 97.6 38.74 85.6 52.58 70.86 32.99"/><polygon class="b" points="107.63 6.43 110.19 22.67 106.39 26.55 111.27 29.51 112.23 35.55 111.2 38.36 112.94 40.06 113.97 46.57 85.6 52.58 107.63 6.43"/><polygon class="f" points="92.69 17.22 98.47 25.61 99.78 30.44 95.19 32.49 87.78 20.77 92.69 17.22"/><polygon class="m" points="98.47 25.61 110.19 22.67 111.27 29.51 95.19 32.49 98.47 25.61"/><polygon class="f" points="76.68 28.78 88.98 45.49 94.05 42.65 91.58 40.06 81.07 25.61 76.68 28.78"/><polygon class="m" points="91.58 40.06 112.23 35.55 112.94 40.06 88.98 45.49 91.58 40.06"/><polygon class="l" points="70.01 98.38 61.79 91.54 57.91 99.52 58.44 103.93 55.76 103.93 46.82 122.3 52.94 135.06 65.34 115.88 70.01 98.38"/><polygon class="b" points="67.12 99.8 52.94 135.06 67.13 134.01 74.06 112.2 72.37 110.23 75.54 107.57 77.74 100.65 71.47 97.37 67.12 99.8"/><polygon class="c" points="61.79 91.54 71.47 88.69 71.47 94.16 67.12 99.8 61.79 91.54"/><polygon class="l" points="71.47 88.69 77.74 100.65 67.12 99.8 71.47 88.69"/><polygon class="e" points="57.91 99.52 64.34 106.72 66.63 109.25 62.27 112.2 55.76 103.93 57.91 99.52"/><polygon class="j" points="64.34 106.72 75.54 107.57 74.06 112.2 62.27 112.2 64.34 106.72"/><polygon class="c" points="83.42 58.14 70.01 61.96 73.93 82.42 80.97 70.28 83.42 58.14"/><polygon class="l" points="83.42 58.14 91.16 74.29 73.93 82.42 83.42 58.14"/><polygon class="g" points="81.59 62.84 74.73 64.98 76.71 75.29 85.37 71.85 81.59 62.84"/><polygon class="c" points="66.29 45.49 68.09 60.86 59.43 64.3 66.29 45.49"/><polygon class="l" points="96.35 83.49 94.65 74.29 104.6 66.19 96.35 83.49"/><polygon class="j" points="41 107.17 40.73 117.09 34.29 122.32 33.11 113.47 41 107.17"/><polygon class="j" points="80.43 124.2 81.91 132.65 75.47 137.35 74.8 129.97 80.43 124.2"/><polygon class="j" points="48.51 146.33 55.22 140.83 52.94 135.06 47.04 138.02 48.51 146.33"/></svg>