<?xml version="1.0" encoding="UTF-8"?><svg id="a" xmlns="http://www.w3.org/2000/svg" viewBox="0 0 160 160"><defs><style>.b{fill:#e6e97c;}.b,.c,.d,.e,.f,.g,.h,.i,.j,.k,.l,.m,.n{stroke-width:0px;}.c{fill:#addac7;}.d{fill:#709d52;}.e{fill:#309b6e;}.f{fill:#84c8ab;}.g{fill:#c2e3d5;}.h{fill:#5bb68f;}.i{fill:#70bf9d;}.j{fill:#28835c;}.k{fill:#b8c744;}.l{fill:#47ad82;}.m{fill:#86b264;}.n{fill:#2d9368;}</style></defs><polygon class="j" points="56.64 128.24 60.3 140.79 72.48 154.18 90.62 141.29 93.04 131.48 78.04 135.7 56.64 128.24"/><polygon class="l" points="80.02 124.09 79.65 130.12 93.04 131.48 73.08 145.25 56.64 128.24 68.88 129.38 70.47 117.16 80.02 124.09"/><polygon class="j" points="6.44 71.32 4.49 82.52 17.53 96.37 20.12 88.99 14.29 76.84 6.44 71.32"/><polygon class="j" points="29.17 88.21 16.15 83.87 16.15 75.22 28.8 77.08 29.17 88.21"/><polygon class="j" points="155.67 73.63 156.98 85.02 142.03 98.38 140.54 91.49 146.5 79.59 155.67 73.63"/><polygon class="j" points="133.35 90.83 146 85.62 144.39 75.49 130.75 81.32 133.35 90.83"/><polygon class="j" points="97.18 27.01 93.64 32.77 61.47 30.22 58.84 22.24 78.1 16.5 97.18 27.01"/><polygon class="l" points="80.99 44.61 82.82 25.3 97.18 27.01 80.25 7.56 58.84 22.24 73.16 24.21 69.27 50.56 80.99 44.61"/><polygon class="l" points="25.05 69.55 16.77 67.69 14.91 53.64 6.44 71.32 20.12 88.99 18.35 77.64 28.68 80.43 25.05 69.55"/><polygon class="l" points="132.67 72.58 143.27 70.35 145.38 57.76 155.67 73.63 140.54 91.49 142.34 79.46 130.62 83.18 132.67 72.58"/><polygon class="m" points="23.94 40.5 16.91 39.19 28.34 111.21 76.55 123.21 79.37 121.96 80.02 124.09 132.34 111.58 143.5 44.59 135.69 47.01 74.32 52.8 23.94 40.5"/><polygon class="d" points="80.02 124.09 81.04 117.31 76.55 123.21 80.02 124.09"/><polygon class="f" points="29.32 31.01 23.94 40.5 35.33 107.82 42.64 100.5 29.32 31.01"/><polygon class="f" points="130 32.5 135.69 47.01 125.46 106.93 113.51 101.39 130 32.5"/><polygon class="i" points="38.76 98.89 80.39 96.86 121.32 99.88 125.46 106.93 85.12 116.36 82.57 115.17 81.04 117.31 35.33 107.82 38.76 98.89"/><polygon class="l" points="80.02 107.82 85.12 116.36 81.04 117.31 80.02 107.82"/><polygon class="c" points="29.32 31.01 38.76 98.89 80.02 107.82 89.07 71.9 80.99 44.61 29.32 31.01"/><polygon class="g" points="80.99 44.61 130 32.5 121.32 99.88 80.02 107.82 80.99 44.61"/><polygon class="n" points="42.12 63.93 40.09 48.33 44.03 49.24 45.68 64.71 42.12 63.93"/><polygon class="l" points="49.63 65.49 48.48 53.92 51.79 54.7 52.43 66.14 49.63 65.49"/><polygon class="n" points="55.99 66.92 55.35 49.89 58.15 50.67 59.42 67.61 55.99 66.92"/><polygon class="l" points="63.08 68.45 62.76 49.27 66.16 49.76 65.85 69.04 63.08 68.45"/><polygon class="n" points="69.6 69.88 70.65 49.14 73.45 49.79 72.37 70.53 69.6 69.88"/><polygon class="b" points="46.72 79.59 57.94 71.9 67.62 77.85 64.64 82.38 58.69 83.8 52.12 83.8 46.72 79.59"/><polygon class="m" points="67.62 77.85 71.59 88.51 63.85 88.02 58.69 83.8 67.62 77.85"/><polygon class="h" points="58.69 83.8 71.59 88.51 60.3 96.86 58.01 89.94 58.69 83.8"/><polygon class="e" points="58.69 83.8 53.36 87.46 51.65 93.41 60.3 96.86 58.69 83.8"/><polygon class="k" points="46.72 79.59 51.65 93.41 58.69 83.8 46.72 79.59"/><polygon class="m" points="42.64 68.84 48.32 70.05 48.58 72.21 43.09 71.37 42.64 68.84"/><polygon class="m" points="39.4 40.64 47.15 42.44 47.59 44.3 39.71 42.81 39.4 40.64"/><polygon class="n" points="89.45 50.69 100.36 48.39 99.8 51.06 89.2 53.17 89.45 50.69"/><polygon class="n" points="106.87 47.09 119.03 44.73 118.53 47.46 106.31 49.7 106.87 47.09"/><polygon class="m" points="88.89 57.82 93.66 57.01 93.11 59.43 88.64 60.24 88.89 57.82"/><polygon class="h" points="88.39 64.21 94.59 63.03 94.1 65.51 88.14 66.38 88.39 64.21"/><polygon class="h" points="105.63 54.84 113.51 53.29 113.07 55.96 105.2 57.26 105.63 54.84"/><polygon class="m" points="104.52 61.85 108.86 60.98 108.17 63.52 103.9 64.27 104.52 61.85"/><polygon class="n" points="87.34 72.21 119.03 66.14 118.11 71.9 115.86 75.62 117.37 76.48 114.84 92.33 86.78 97.63 88.14 94.22 86.86 93.78 87.34 72.21"/><polygon class="b" points="86.86 93.78 95.9 83.8 100.36 87.89 118.11 71.9 117.37 76.48 100.98 91 95.65 88.02 86.78 97.63 86.86 93.78"/><polygon class="g" points="91.46 75.69 98.62 74.3 98.11 76.62 91.18 78.04 91.46 75.69"/></svg>